<svg width="20.835938" height="20.000244" viewBox="0 0 20.8359 20.0002" fill="none" xmlns="http://www.w3.org/2000/svg" xmlns:xlink="http://www.w3.org/1999/xlink">
	<desc>
			Created with Pixso.
	</desc>
	<defs/>
	<path id="Vector" d="M11.8398 0.0932617C9.34766 -0.23584 6.81445 0.312012 4.71094 1.63525C2.60547 2.95874 1.07031 4.96851 0.388672 7.29346C-0.291016 9.61841 -0.0742188 12.1016 1.00195 14.2844C2.08008 16.4673 3.94336 18.2024 6.24805 19.1694C6.18555 18.4011 6.24219 17.6284 6.41797 16.8765C6.61133 16.0374 7.76758 11.4133 7.76758 11.4133C7.53711 10.9175 7.42188 10.3794 7.42969 9.83643C7.42969 8.35132 8.32227 7.24341 9.43359 7.24341C9.63281 7.24048 9.83008 7.27905 10.0137 7.3562C10.1953 7.43335 10.3594 7.54736 10.4922 7.69043C10.625 7.8335 10.7227 8.0022 10.7812 8.1853C10.8398 8.36841 10.8574 8.56152 10.832 8.75146C10.832 9.65137 10.2285 11.0134 9.91406 12.2913C9.85352 12.5256 9.84961 12.7708 9.90234 13.0071C9.95703 13.2432 10.0703 13.4636 10.2285 13.6506C10.3887 13.8379 10.5918 13.9863 10.8223 14.0842C11.0527 14.1821 11.3047 14.2266 11.5547 14.2144C13.5332 14.2144 14.8574 11.7834 14.8574 8.91333C14.8574 6.71338 13.3398 5.06543 10.541 5.06543C9.87305 5.04028 9.20508 5.14624 8.58008 5.37671C7.95312 5.60693 7.38281 5.95679 6.9043 6.40527C6.42383 6.85352 6.04297 7.39087 5.78516 7.98462C5.52734 8.57837 5.39844 9.21631 5.40625 9.85938C5.37695 10.5728 5.61719 11.2722 6.08203 11.8293C6.16797 11.8916 6.23242 11.9792 6.26172 12.0793C6.29297 12.1792 6.28906 12.2859 6.25 12.3833C6.20312 12.5674 6.08203 13.0063 6.0332 13.1672C6.02344 13.2219 6 13.2734 5.9668 13.3179C5.93164 13.3623 5.88672 13.3984 5.83398 13.4231C5.7832 13.4478 5.72656 13.4604 5.66797 13.4602C5.61133 13.46 5.55273 13.4465 5.50195 13.4214C4.06055 12.8674 3.38086 11.3442 3.38086 9.60522C3.38086 6.7583 5.86523 3.35034 10.834 3.35034C14.7871 3.35034 17.416 6.12744 17.416 9.09741C17.416 13.0063 15.1484 15.9453 11.7988 15.9453C11.2969 15.9607 10.8008 15.8545 10.3535 15.6367C9.90625 15.4189 9.52539 15.0967 9.24219 14.6995C9.24219 14.6995 8.64062 17.0154 8.52148 17.4534C8.2793 18.21 7.92188 18.9282 7.45898 19.5842C8.42188 19.8643 9.41992 20.0044 10.4238 20.0002C11.793 20.0015 13.1484 19.7434 14.4121 19.241C15.6758 18.7385 16.8242 18.0017 17.791 17.0725C18.7598 16.1433 19.5254 15.04 20.0488 13.8259C20.5703 12.6121 20.8379 11.311 20.8359 9.99731C20.8359 7.58228 19.9238 5.24927 18.2715 3.4292C16.6172 1.60889 14.334 0.424316 11.8418 0.0942383L11.8398 0.0932617Z" fill="#FFFFFF" fill-opacity="1.000000" fill-rule="nonzero"/>
</svg>
