<svg width="20.000000" height="20.000000" viewBox="0 0 20 20" fill="none" xmlns="http://www.w3.org/2000/svg" xmlns:xlink="http://www.w3.org/1999/xlink">
	<desc>
			Created with Pixso.
	</desc>
	<defs/>
	<path id="Vector" d="M10 0C12.7168 0 13.0566 0.0100098 14.1211 0.0600586C15.1875 0.110107 15.9121 0.2771 16.5508 0.524902C17.2109 0.779053 17.7656 1.12305 18.3223 1.67798C18.8301 2.17798 19.2246 2.78247 19.4746 3.44995C19.7227 4.08691 19.8906 4.81299 19.9395 5.87793C19.9863 6.94409 20 7.28296 20 10C20 12.717 19.9902 13.0559 19.9395 14.1221C19.8906 15.187 19.7227 15.9121 19.4746 16.55C19.2246 17.2178 18.832 17.8225 18.3223 18.322C17.8223 18.8303 17.2168 19.2236 16.5508 19.4751C15.9121 19.7219 15.1875 19.8899 14.1211 19.9399C13.0566 19.9871 12.7168 20 10 20C7.2832 20 6.94336 19.99 5.87891 19.9399C4.8125 19.8899 4.08789 19.7219 3.44922 19.4751C2.7832 19.2244 2.17773 18.8311 1.67773 18.322C1.16992 17.8223 0.775391 17.2175 0.525391 16.55C0.277344 15.9131 0.109375 15.187 0.0605469 14.1221C0.0136719 13.0559 0 12.717 0 10C0 7.28296 0.00976562 6.94409 0.0605469 5.87793C0.109375 4.81201 0.277344 4.08789 0.525391 3.44995C0.775391 2.78223 1.16797 2.17725 1.67773 1.67798C2.17773 1.16919 2.7832 0.775635 3.44922 0.524902C4.08789 0.2771 4.8125 0.110107 5.87891 0.0600586C6.94336 0.0129395 7.2832 0 10 0ZM10 5C8.67383 5 7.40234 5.52686 6.46484 6.46436C5.52734 7.4021 5 8.67383 5 10C5 11.3262 5.52734 12.5979 6.46484 13.5356C7.40234 14.4731 8.67383 15 10 15C11.3262 15 12.5977 14.4731 13.5352 13.5356C14.4727 12.5979 15 11.3262 15 10C15 8.67383 14.4727 7.4021 13.5352 6.46436C12.5977 5.52686 11.3262 5 10 5ZM16.5 4.75C16.5 4.41846 16.3691 4.10059 16.1348 3.86621C15.9004 3.63159 15.582 3.5 15.25 3.5C14.918 3.5 14.5996 3.63159 14.3652 3.86621C14.1309 4.10059 14 4.41846 14 4.75C14 5.08154 14.1309 5.39941 14.3652 5.63379C14.5996 5.86841 14.918 6 15.25 6C15.582 6 15.9004 5.86841 16.1348 5.63379C16.3691 5.39941 16.5 5.08154 16.5 4.75ZM10 7C10.7949 7 11.5586 7.31616 12.1211 7.87866C12.6836 8.44141 13 9.20435 13 10C13 10.7957 12.6836 11.5586 12.1211 12.1213C11.5586 12.6838 10.7949 13 10 13C9.20508 13 8.44141 12.6838 7.87891 12.1213C7.31641 11.5586 7 10.7957 7 10C7 9.20435 7.31641 8.44141 7.87891 7.87866C8.44141 7.31616 9.20508 7 10 7Z" fill="#FFFFFF" fill-opacity="1.000000" fill-rule="nonzero"/>
</svg>
