<svg width="20.384766" height="16.573486" viewBox="0 0 20.3848 16.5735" fill="none" xmlns="http://www.w3.org/2000/svg" xmlns:xlink="http://www.w3.org/1999/xlink">
	<desc>
			Created with Pixso.
	</desc>
	<defs/>
	<path id="Vector" d="M20.3828 1.96753C19.6191 2.30518 18.8105 2.52686 17.9805 2.62549C18.8555 2.10278 19.5078 1.28052 19.8203 0.311523C19.002 0.799561 18.1016 1.14136 17.1641 1.32642C16.5352 0.653076 15.7012 0.206299 14.791 0.0561523C13.8828 -0.0942383 12.9492 0.0600586 12.1367 0.494873C11.3242 0.929932 10.6777 1.62109 10.2988 2.46118C9.91797 3.30127 9.82812 4.24316 10.0391 5.14038C8.37695 5.05713 6.75 4.625 5.26367 3.87207C3.7793 3.11914 2.46875 2.0625 1.41992 0.770508C1.04688 1.40894 0.851562 2.13477 0.853516 2.87354C0.853516 4.32349 1.5918 5.60449 2.71289 6.35449C2.04883 6.3335 1.40039 6.1543 0.818359 5.83154L0.818359 5.88354C0.818359 6.84912 1.1543 7.78516 1.76562 8.53247C2.37695 9.28003 3.22656 9.79297 4.17383 9.98438C3.55664 10.1514 2.91211 10.176 2.2832 10.0564C2.55078 10.8877 3.07031 11.6147 3.77148 12.1355C4.47266 12.6565 5.31836 12.9453 6.19141 12.9614C5.32422 13.6428 4.33008 14.1465 3.26758 14.4436C2.20508 14.7407 1.0957 14.8257 0 14.6934C1.91211 15.9229 4.13672 16.5757 6.41016 16.5735C14.1035 16.5735 18.3105 10.2004 18.3105 4.67334C18.3105 4.49341 18.3047 4.31152 18.2969 4.13354C19.1152 3.5415 19.8223 2.80835 20.3848 1.96851L20.3828 1.96753Z" fill="#FFFFFF" fill-opacity="1.000000" fill-rule="nonzero"/>
</svg>
